<?xml version="1.0" encoding="UTF-8"?>
<svg id="Layer_2" data-name="Layer 2" xmlns="http://www.w3.org/2000/svg" viewBox="0 0 389.44 389.44">
  <defs>
    <style>
      .cls-1, .cls-2 {
        fill: none;
      }

      .cls-1, .cls-2, .cls-3, .cls-4, .cls-5 {
        stroke-miterlimit: 10;
        stroke-width: 12px;
      }

      .cls-1, .cls-3, .cls-4, .cls-5 {
        stroke: #000;
      }

      .cls-2 {
        stroke: #fff;
      }

      .cls-3 {
        fill: #fff;
      }

      .cls-4 {
        fill: #21b4a6;
      }
    </style>
  </defs>
  <g id="Layer_1-2" data-name="Layer 1">
    <g>
      <path class="cls-5" d="M275.71,365.22c-24.54,11.68-52,18.22-80.99,18.22-66.46,0-124.9-34.36-158.53-86.28h0s104.34-221.43,104.34-221.43l65.25,139.74,69.92,149.75Z"/>
      <path class="cls-4" d="M234.79,345.83c-17.82,8.49-37.77,13.24-58.82,13.24-48.27,0-90.72-24.96-115.14-62.67h0s75.79-160.83,75.79-160.83l47.39,101.5,50.79,108.76Z"/>
      <path class="cls-5" d="M362.67,280.86h0c-18.9,36.79-49.53,66.55-86.96,84.36l-69.92-149.75,62.65-132.96,94.23,198.35Z"/>
      <path class="cls-4" d="M336.27,269.49h0c-14.23,27.7-37.29,50.11-65.47,63.51l-52.64-112.74,47.17-100.1,70.94,149.33Z"/>
      <path class="cls-3" d="M383.44,194.72c0,31.04-7.5,60.32-20.77,86.14l-94.23-198.35-62.65,132.96-65.25-139.74-104.34,221.42c-19.1-29.5-30.2-64.67-30.2-102.43C6,90.5,90.5,6,194.72,6s188.72,84.5,188.72,188.72Z"/>
      <line class="cls-1" x1="275.71" y1="365.23" x2="275.71" y2="365.22"/>
      <line class="cls-1" x1="205.79" y1="215.47" x2="205.48" y2="216.13"/>
      <line class="cls-1" x1="362.68" y1="280.88" x2="362.67" y2="280.87"/>
      <polyline class="cls-2" points="122.53 127.68 140.6 87.02 257.86 337.92"/>
      <polyline class="cls-2" points="257.86 118.75 268.78 96.01 351.99 271.26"/>
      <circle cx="50.04" cy="162.08" r="6.1"/>
      <circle cx="203.74" cy="53.1" r="11.43"/>
      <circle cx="344.79" cy="162.08" r="6.1"/>
    </g>
  </g>
</svg>